<svg width="20" height="20" viewBox="0 0 20 20" fill="none" xmlns="http://www.w3.org/2000/svg">
<path d="M10 12.1293L2.54753 19.5817C2.26869 19.8606 1.91381 20 1.48289 20C1.05196 20 0.697085 19.8606 0.418251 19.5817C0.139417 19.3029 0 18.948 0 18.5171C0 18.0862 0.139417 17.7313 0.418251 17.4525L7.87072 10L0.418251 2.54753C0.139417 2.26869 0 1.91381 0 1.48289C0 1.05196 0.139417 0.697085 0.418251 0.418251C0.697085 0.139417 1.05196 0 1.48289 0C1.91381 0 2.26869 0.139417 2.54753 0.418251L10 7.87072L17.4525 0.418251C17.7313 0.139417 18.0862 0 18.5171 0C18.948 0 19.3029 0.139417 19.5817 0.418251C19.8606 0.697085 20 1.05196 20 1.48289C20 1.91381 19.8606 2.26869 19.5817 2.54753L12.1293 10L19.5817 17.4525C19.8606 17.7313 20 18.0862 20 18.5171C20 18.948 19.8606 19.3029 19.5817 19.5817C19.3029 19.8606 18.948 20 18.5171 20C18.0862 20 17.7313 19.8606 17.4525 19.5817L10 12.1293Z" fill="#3C4233"/>
</svg>
