<svg width="168" height="97" viewBox="0 0 168 97" fill="none" xmlns="http://www.w3.org/2000/svg">
<path fill-rule="evenodd" clip-rule="evenodd" d="M85.0597 39.4128C85.9414 39.8195 86.9091 40.0229 87.9628 40.0229C89.4466 40.0229 90.7583 39.6697 91.898 38.9632C93.0592 38.2568 93.9624 37.2935 94.6075 36.0733C95.2741 34.8531 95.6075 33.4617 95.6075 31.899C95.6075 30.3363 95.2741 28.9448 94.6075 27.7246C93.9624 26.5044 93.0592 25.5411 91.898 24.8347C90.7583 24.1283 89.4466 23.7751 87.9628 23.7751C86.9091 23.7751 85.9414 23.9891 85.0597 24.4173C84.6223 24.6297 84.2244 24.8818 83.8663 25.1733V3.34483H99.9076L99.9748 24.0962H96.477V28.2705H99.9882L100.025 39.7018H104.96L104.923 28.2705H108.509V24.0962H104.91L104.843 3.34483H138.813V25.1093C138.455 24.8284 138.057 24.587 137.62 24.3852C136.759 23.9784 135.792 23.7751 134.717 23.7751C133.233 23.7751 131.91 24.1283 130.749 24.8347C129.609 25.5411 128.706 26.5044 128.04 27.7246C127.394 28.9448 127.072 30.3363 127.072 31.899C127.072 33.4617 127.394 34.8531 128.04 36.0733C128.706 37.2935 129.609 38.2568 130.749 38.9632C131.91 39.6697 133.233 40.0229 134.717 40.0229C135.792 40.0229 136.77 39.8088 137.652 39.3807C138.116 39.1442 138.535 38.8689 138.91 38.5552V39.7018H143.748V3.34483H164.64V93.6552H126.092V56.8621H121.157V65.5817C120.799 65.3007 120.401 65.0596 119.964 64.8575C119.104 64.4508 118.136 64.2474 117.061 64.2474C115.577 64.2474 114.254 64.6007 113.093 65.3071C111.954 66.0135 111.05 66.9768 110.384 68.197C109.739 69.4172 109.416 70.8087 109.416 72.3714C109.416 73.9341 109.739 75.3255 110.384 76.5457C111.05 77.7659 111.954 78.7292 113.093 79.4356C114.254 80.1421 115.577 80.4953 117.061 80.4953C118.136 80.4953 119.114 80.2812 119.996 79.8531C120.46 79.6166 120.879 79.3413 121.254 79.0279V93.6552H65.1393V71.6007C65.1393 70.5946 65.3759 69.8453 65.8489 69.353C66.3435 68.8392 66.9994 68.5823 67.8166 68.5823C68.2251 68.5823 68.5907 68.6466 68.9133 68.775C69.2358 68.9034 69.5046 69.0854 69.7197 69.3209L72.655 65.6282C72.2249 65.1572 71.7195 64.8147 71.1389 64.6007C70.5798 64.3652 69.924 64.2474 69.1713 64.2474C67.451 64.2474 66.107 64.7505 65.1393 65.7566V64.5685H60.2041V93.6552H57.0347V71.8603C57.0347 70.6829 56.7766 69.6554 56.2605 68.7777C55.7659 67.8786 55.0563 67.1829 54.1316 66.6905C53.2069 66.1767 52.1317 65.9199 50.906 65.9199C49.7018 65.9199 48.6373 66.1767 47.7127 66.6905C47.3343 66.8919 46.9903 67.129 46.6805 67.4023V58.5345H41.7453V93.6552H36.0226V70.4153H39.5707V66.241H36.0226V59.7868H31.0875V66.241H27.5393V70.4153H31.0875V93.6552H3.36V3.34483H78.9311V46.2844H83.8018V38.6461C84.1764 38.9432 84.5957 39.1987 85.0597 39.4128ZM78.9311 3.34483V0L3.36 3.98734e-06H0V3.34483V93.6552V97H3.36H31.0875V93.6552H36.0226V97H41.7453V93.6552H46.6805V97H52.0995V93.6552H57.0347V97H60.2041V93.6552H65.1393V97H121.254V93.6552H126.092V97H164.64H168V93.6552V3.34483V3.98734e-06H164.64H143.748V3.34483H138.813V3.98734e-06L83.8663 0V3.34483H78.9311ZM52.0995 93.6552H46.6805V72.952C46.6805 72.4169 46.7987 71.9459 47.0353 71.5392C47.2718 71.111 47.5944 70.7899 48.003 70.5759C48.4116 70.3404 48.8846 70.2226 49.4222 70.2226C50.1964 70.2226 50.8308 70.4795 51.3253 70.9933C51.8414 71.4857 52.0995 72.1386 52.0995 72.952V93.6552ZM104.843 3.34483H99.9076L99.8968 1.2281e-05H104.832L104.843 3.34483ZM88.8982 35.11C88.3821 35.4311 87.7692 35.5916 87.0596 35.5916C86.393 35.5916 85.7909 35.4311 85.2533 35.11C84.7157 34.7889 84.2963 34.35 83.9953 33.7935C83.7157 33.2369 83.576 32.6054 83.576 31.899C83.576 31.1712 83.7265 30.5289 84.0276 29.9724C84.3286 29.4158 84.7372 28.9876 85.2533 28.6879C85.7909 28.3668 86.4037 28.2063 87.0919 28.2063C87.78 28.2063 88.3821 28.3668 88.8982 28.6879C89.4358 28.9876 89.8551 29.4158 90.1562 29.9724C90.4572 30.5289 90.6078 31.1712 90.6078 31.899C90.6078 32.6054 90.4572 33.2369 90.1562 33.7935C89.8551 34.35 89.4358 34.7889 88.8982 35.11ZM132.535 80.2063C133.438 80.4418 134.352 80.5595 135.277 80.5595C137.233 80.5595 138.782 80.11 139.921 79.2109C141.083 78.3118 141.663 77.1023 141.663 75.5824C141.663 74.5977 141.481 73.8056 141.115 73.2062C140.749 72.5854 140.276 72.0931 139.696 71.7292C139.115 71.3652 138.502 71.0762 137.857 70.8622C137.212 70.6481 136.599 70.4662 136.019 70.3163C135.438 70.1665 134.965 69.9952 134.599 69.8025C134.234 69.6099 134.051 69.353 134.051 69.0319C134.051 68.7322 134.191 68.5074 134.47 68.3576C134.75 68.1863 135.169 68.1007 135.728 68.1007C136.309 68.1007 136.9 68.2184 137.502 68.4539C138.126 68.6894 138.685 69.0961 139.18 69.6741L141.986 66.8484C141.276 65.9493 140.352 65.275 139.212 64.8254C138.094 64.3545 136.868 64.119 135.535 64.119C134.266 64.119 133.158 64.3331 132.212 64.7612C131.266 65.1894 130.535 65.778 130.019 66.5273C129.503 67.2551 129.245 68.1221 129.245 69.1282C129.245 70.0701 129.428 70.8515 129.793 71.4723C130.159 72.0717 130.632 72.5426 131.212 72.8851C131.793 73.2276 132.406 73.4952 133.051 73.6879C133.696 73.8806 134.309 74.0625 134.89 74.2338C135.47 74.3836 135.943 74.5656 136.309 74.7796C136.696 74.9723 136.889 75.2613 136.889 75.6466C136.889 75.9463 136.728 76.1818 136.406 76.353C136.105 76.5243 135.664 76.6099 135.083 76.6099C134.244 76.6099 133.47 76.4601 132.761 76.1604C132.051 75.8393 131.438 75.4004 130.922 74.8439L128.116 77.6696C128.653 78.2476 129.299 78.7613 130.051 79.2109C130.825 79.639 131.653 79.9708 132.535 80.2063ZM117.932 76.0641C118.641 76.0641 119.254 75.9142 119.77 75.6145C120.286 75.2934 120.695 74.8546 120.996 74.298C121.297 73.7414 121.448 73.0992 121.448 72.3714C121.448 71.6435 121.297 71.012 120.996 70.4769C120.716 69.9203 120.308 69.4814 119.77 69.1603C119.254 68.8392 118.652 68.6787 117.964 68.6787C117.276 68.6787 116.663 68.8392 116.125 69.1603C115.609 69.4814 115.19 69.9203 114.867 70.4769C114.566 71.0334 114.416 71.6649 114.416 72.3714C114.416 73.0778 114.566 73.7093 114.867 74.2659C115.168 74.8225 115.588 75.2613 116.125 75.5824C116.663 75.9035 117.265 76.0641 117.932 76.0641ZM93.8774 79.4356C95.0171 80.1421 96.3073 80.4953 97.7481 80.4953C98.8018 80.4953 99.7587 80.2919 100.619 79.8852C101.175 79.6226 101.658 79.2972 102.07 78.9095V80.1742H106.909V64.5685H102.07V65.8647C101.645 65.4599 101.151 65.1241 100.587 64.8575C99.748 64.4508 98.8018 64.2474 97.7481 64.2474C96.3073 64.2474 95.0171 64.6007 93.8774 65.3071C92.7592 66.0135 91.8668 66.9768 91.2001 68.197C90.555 69.4172 90.2325 70.8087 90.2325 72.3714C90.2325 73.9341 90.555 75.3255 91.2001 76.5457C91.8668 77.7659 92.7592 78.7292 93.8774 79.4356ZM101.296 75.0365C100.651 75.7215 99.8017 76.0641 98.748 76.0641C98.0814 76.0641 97.4793 75.9035 96.9417 75.5824C96.4041 75.2613 95.9848 74.8225 95.6837 74.2659C95.3827 73.7093 95.2321 73.0778 95.2321 72.3714C95.2321 71.6435 95.3827 71.0013 95.6837 70.4447C96.0063 69.8882 96.4256 69.46 96.9417 69.1603C97.4793 68.8392 98.0922 68.6787 98.7803 68.6787C99.4684 68.6787 100.071 68.8392 100.587 69.1603C101.124 69.46 101.533 69.8882 101.812 70.4447C102.113 71.0013 102.264 71.6435 102.264 72.3714C102.264 73.4417 101.941 74.3301 101.296 75.0365ZM81.2703 80.5274C79.5715 80.5274 78.0555 80.1849 76.7222 79.4999C75.4105 78.7934 74.3783 77.8194 73.6257 76.5778C72.873 75.3362 72.4967 73.9341 72.4967 72.3714C72.4967 70.8087 72.8623 69.4172 73.5934 68.197C74.346 66.9554 75.3567 65.9814 76.6255 65.275C77.8942 64.5685 79.3242 64.2153 80.9155 64.2153C82.4638 64.2153 83.8293 64.5471 85.012 65.2108C86.1947 65.8744 87.1194 66.7949 87.786 67.9722C88.4742 69.1496 88.8182 70.4983 88.8182 72.0182C88.8182 72.2964 88.7967 72.5961 88.7537 72.9172C88.7322 73.2169 88.6785 73.5702 88.5924 73.9769L77.3549 74.0036C77.4268 74.2555 77.5169 74.4927 77.6254 74.7154C77.9695 75.3576 78.4426 75.8607 79.0447 76.2246C79.6683 76.5671 80.3994 76.7384 81.2381 76.7384C82.0122 76.7384 82.7111 76.6099 83.3347 76.353C83.9583 76.0748 84.5067 75.668 84.9798 75.1329L87.6893 77.8301C86.9151 78.7292 85.9797 79.4035 84.883 79.8531C83.7863 80.3026 82.5821 80.5274 81.2703 80.5274ZM77.5932 69.9952C77.5001 70.1939 77.4211 70.4059 77.3569 70.631L84.209 70.6117C84.1425 70.314 84.0554 70.0444 83.9476 69.8025C83.6895 69.2031 83.3025 68.7536 82.7864 68.4539C82.2918 68.1328 81.6789 67.9722 80.9478 67.9722C80.1736 67.9722 79.4963 68.1542 78.9156 68.5181C78.3565 68.8606 77.9157 69.353 77.5932 69.9952ZM135.587 35.5916C136.297 35.5916 136.91 35.4418 137.426 35.1421C137.942 34.821 138.351 34.3822 138.652 33.8256C138.953 33.269 139.103 32.6268 139.103 31.899C139.103 31.1712 138.953 30.5396 138.652 30.0045C138.372 29.4479 137.964 29.0091 137.426 28.6879C136.91 28.3668 136.308 28.2063 135.62 28.2063C134.932 28.2063 134.319 28.3668 133.781 28.6879C133.265 29.0091 132.846 29.4479 132.523 30.0045C132.222 30.5611 132.072 31.1926 132.072 31.899C132.072 32.6054 132.222 33.2369 132.523 33.7935C132.824 34.35 133.243 34.7889 133.781 35.11C134.319 35.4311 134.921 35.5916 135.587 35.5916ZM113.561 39.0274C114.895 39.7125 116.411 40.055 118.109 40.055C119.421 40.055 120.625 39.8302 121.722 39.3807C122.819 38.9311 123.754 38.2568 124.528 37.3577L121.819 34.6604C121.346 35.1956 120.797 35.6023 120.174 35.8806C119.55 36.1375 118.851 36.266 118.077 36.266C117.238 36.266 116.507 36.0947 115.884 35.7522C115.282 35.3883 114.809 34.8852 114.464 34.243C114.356 34.0202 114.266 33.7831 114.194 33.5312L125.431 33.5045C125.518 33.0978 125.571 32.7446 125.593 32.4449C125.636 32.1238 125.657 31.8241 125.657 31.5458C125.657 30.0259 125.313 28.6772 124.625 27.4999C123.958 26.3225 123.034 25.402 121.851 24.7384C120.668 24.0748 119.303 23.743 117.755 23.743C116.163 23.743 114.733 24.0962 113.465 24.8026C112.196 25.509 111.185 26.483 110.432 27.7246C109.701 28.9448 109.336 30.3363 109.336 31.899C109.336 33.4617 109.712 34.8638 110.465 36.1054C111.217 37.347 112.25 38.321 113.561 39.0274ZM114.196 30.1586C114.26 29.9334 114.339 29.7214 114.432 29.5228C114.755 28.8806 115.196 28.3883 115.755 28.0457C116.335 27.6818 117.013 27.4999 117.787 27.4999C118.518 27.4999 119.131 27.6604 119.625 27.9815C120.142 28.2812 120.529 28.7308 120.787 29.3302C120.894 29.5718 120.982 29.8415 121.048 30.1393L114.196 30.1586ZM70.5207 39.7018V24.0962H75.4559V39.7018H70.5207ZM73.0044 21.9448C72.2303 21.9448 71.5848 21.6879 71.0687 21.1741C70.5741 20.639 70.3272 19.9968 70.3272 19.2475C70.3272 18.4769 70.5741 17.8347 71.0687 17.3209C71.5848 16.8071 72.2303 16.5502 73.0044 16.5502C73.7785 16.5502 74.4129 16.8071 74.9075 17.3209C75.4021 17.8347 75.6491 18.4769 75.6491 19.2475C75.6491 19.9968 75.4021 20.639 74.9075 21.1741C74.4129 21.6879 73.7785 21.9448 73.0044 21.9448ZM56.7551 24.0962V39.7018H61.6903V31.1283C61.6903 30.1222 61.9268 29.373 62.3999 28.8806C62.8945 28.3668 63.5504 28.11 64.3675 28.11C64.7761 28.11 65.1417 28.1742 65.4642 28.3026C65.7868 28.4311 66.0556 28.613 66.2706 28.8485L69.2059 25.1558C68.7758 24.6849 68.2705 24.3424 67.6899 24.1283C67.1308 23.8928 66.4749 23.7751 65.7223 23.7751C64.002 23.7751 62.658 24.2781 61.6903 25.2843V24.0962H56.7551ZM48.3333 40.055C46.7205 40.055 45.2582 39.7018 43.9464 38.9953C42.6347 38.2889 41.6025 37.3149 40.8499 36.0733C40.0972 34.8317 39.7209 33.4403 39.7209 31.899C39.7209 30.3363 40.0972 28.9448 40.8499 27.7246C41.624 26.483 42.667 25.509 43.9787 24.8026C45.2904 24.0962 46.7635 23.743 48.3978 23.743C49.6235 23.743 50.7417 23.957 51.7524 24.3852C52.7846 24.7919 53.6985 25.4127 54.4942 26.2476L51.3331 29.3944C50.9675 28.9876 50.5374 28.688 50.0428 28.4953C49.5697 28.3026 49.0214 28.2063 48.3978 28.2063C47.6881 28.2063 47.0538 28.3668 46.4947 28.6879C45.9571 28.9876 45.527 29.4158 45.2044 29.9724C44.9034 30.5075 44.7528 31.139 44.7528 31.8669C44.7528 32.5947 44.9034 33.2369 45.2044 33.7935C45.527 34.35 45.9678 34.7889 46.5269 35.11C47.086 35.4311 47.7096 35.5916 48.3978 35.5916C49.0429 35.5916 49.6128 35.4846 50.1073 35.2705C50.6234 35.0351 51.0643 34.714 51.4298 34.3072L54.5587 37.454C53.7415 38.3103 52.8168 38.9632 51.7847 39.4128C50.7525 39.8409 49.602 40.055 48.3333 40.055ZM28.9471 39.7339C29.8502 39.9694 30.7642 40.0871 31.6888 40.0871C33.6457 40.0871 35.194 39.6375 36.3337 38.7385C37.4949 37.8394 38.0755 36.6299 38.0755 35.11C38.0755 34.1253 37.8927 33.3332 37.5272 32.7339C37.1616 32.1131 36.6885 31.6207 36.1079 31.2568C35.5273 30.8929 34.9144 30.6039 34.2693 30.3898C33.6242 30.1757 33.0113 29.9938 32.4307 29.8439C31.8501 29.6941 31.377 29.5228 31.0115 29.3302C30.6459 29.1375 30.4631 28.8806 30.4631 28.5595C30.4631 28.2598 30.6029 28.035 30.8824 27.8852C31.162 27.7139 31.5813 27.6283 32.1404 27.6283C32.721 27.6283 33.3124 27.746 33.9145 27.9815C34.5381 28.217 35.0972 28.6237 35.5918 29.2017L38.3981 26.376C37.6884 25.4769 36.7638 24.8026 35.6241 24.3531C34.5059 23.8821 33.2801 23.6466 31.9469 23.6466C30.6781 23.6466 29.5707 23.8607 28.6245 24.2888C27.6783 24.717 26.9472 25.3057 26.4311 26.0549C25.915 26.7827 25.657 27.6497 25.657 28.6558C25.657 29.5977 25.8397 30.3791 26.2053 30.9999C26.5709 31.5993 27.044 32.0702 27.6246 32.4128C28.2052 32.7553 28.818 33.0228 29.4632 33.2155C30.1083 33.4082 30.7212 33.5901 31.3018 33.7614C31.8824 33.9112 32.3555 34.0932 32.721 34.3072C33.1081 34.4999 33.3016 34.7889 33.3016 35.1742C33.3016 35.4739 33.1404 35.7094 32.8178 35.8806C32.5167 36.0519 32.0759 36.1375 31.4953 36.1375C30.6566 36.1375 29.8825 35.9877 29.1729 35.688C28.4632 35.3669 27.8504 34.928 27.3343 34.3714L24.528 37.1972C25.0656 37.7751 25.7107 38.2889 26.4634 38.7385C27.2375 39.1666 28.0654 39.4984 28.9471 39.7339Z" fill="#3C4233"/>
</svg>
