<svg width="40" height="40" viewBox="0 0 40 40" fill="none" xmlns="http://www.w3.org/2000/svg">
<path d="M14.4832 31.7738C13.7494 31.7738 13.024 31.68 12.3072 31.4922C11.6075 31.3045 10.9504 31.04 10.336 30.6986C9.73871 30.3402 9.22672 29.9306 8.80005 29.4698L11.0272 27.217C11.4368 27.6608 11.9232 28.0106 12.4864 28.2666C13.0496 28.5056 13.664 28.625 14.3296 28.625C14.7904 28.625 15.1403 28.5568 15.3792 28.4202C15.6352 28.2837 15.7632 28.096 15.7632 27.857C15.7632 27.5498 15.6096 27.3194 15.3024 27.1658C15.0123 26.9952 14.6368 26.8501 14.176 26.7306C13.7152 26.5941 13.2288 26.449 12.7168 26.2954C12.2048 26.1418 11.7184 25.9285 11.2576 25.6554C10.7968 25.3824 10.4214 25.0069 10.1312 24.529C9.84112 24.0341 9.69605 23.4112 9.69605 22.6602C9.69605 21.8581 9.90085 21.1669 10.3104 20.5866C10.72 19.9893 11.3003 19.52 12.0512 19.1786C12.8022 18.8373 13.6811 18.6666 14.688 18.6666C15.7462 18.6666 16.719 18.8544 17.6064 19.2298C18.511 19.5882 19.2448 20.1258 19.808 20.8426L17.5808 23.0954C17.1883 22.6346 16.7446 22.3104 16.2496 22.1226C15.7718 21.9349 15.3024 21.841 14.8416 21.841C14.3979 21.841 14.0651 21.9093 13.8432 22.0458C13.6214 22.1653 13.5104 22.3445 13.5104 22.5834C13.5104 22.8394 13.6555 23.0442 13.9456 23.1978C14.2358 23.3514 14.6112 23.488 15.072 23.6074C15.5328 23.7269 16.0192 23.872 16.5312 24.0426C17.0432 24.2133 17.5296 24.4437 17.9904 24.7338C18.4512 25.024 18.8267 25.4165 19.1168 25.9114C19.407 26.3893 19.552 27.0208 19.552 27.8058C19.552 29.0176 19.0912 29.9818 18.1696 30.6986C17.2651 31.4154 16.0363 31.7738 14.4832 31.7738Z" fill="#B6EC3D"/>
<path d="M24.6827 31.6523L24.5808 0H28.4976L28.5995 31.6523H24.6827ZM21.8667 22.5387V19.2107H31.4155V22.5387H21.8667Z" fill="#B6EC3D"/>
<path fill-rule="evenodd" clip-rule="evenodd" d="M22.6667 0.176229C21.7943 0.0599976 20.9042 0 20 0C8.95429 0 0 8.95429 0 20C0 31.0456 8.95429 40 20 40C31.0456 40 40 31.0456 40 20C40 12.8758 36.2752 6.62168 30.6667 3.07883V7.02008C34.4117 10.1013 36.8 14.7717 36.8 20C36.8 29.2784 29.2784 36.8 20 36.8C10.7216 36.8 3.2 29.2784 3.2 20C3.2 10.7216 10.7216 3.2 20 3.2C20.9075 3.2 21.7982 3.27195 22.6667 3.41048V0.176229Z" fill="#B6EC3D"/>
</svg>
